<?xml version="1.0" encoding="UTF-8" standalone="no"?>
<svg
   width="100"
   height="66"
   version="1.1"
   viewBox="0 0 75.000002 49.500001"
   id="svg152"
   sodipodi:docname="arrow.svg"
   inkscape:version="1.2 (dc2aedaf03, 2022-05-15)"
   xmlns:inkscape="http://www.inkscape.org/namespaces/inkscape"
   xmlns:sodipodi="http://sodipodi.sourceforge.net/DTD/sodipodi-0.dtd"
   xmlns="http://www.w3.org/2000/svg"
   xmlns:svg="http://www.w3.org/2000/svg">
  <sodipodi:namedview
     id="namedview154"
     pagecolor="#000000"
     bordercolor="#cccccc"
     borderopacity="1"
     inkscape:pageshadow="0"
     inkscape:pageopacity="1"
     inkscape:pagecheckerboard="0"
     inkscape:document-units="pt"
     showgrid="false"
     units="px"
     height="66px"
     inkscape:zoom="3.0234874"
     inkscape:cx="-0.3307439"
     inkscape:cy="-2.6459512"
     inkscape:window-width="1920"
     inkscape:window-height="1015"
     inkscape:window-x="0"
     inkscape:window-y="0"
     inkscape:window-maximized="1"
     inkscape:current-layer="g150"
     inkscape:showpageshadow="0"
     inkscape:deskcolor="#000000" />
  <defs
     id="defs62">
    <symbol
       id="t"
       overflow="visible">
      <path
         d="m 19.328,-1.1562 c -0.99219,0.52344 -2.0273,0.91406 -3.1094,1.1719 -1.0859,0.25781 -2.2109,0.39062 -3.375,0.39062 -3.5117,0 -6.293,-0.97656 -8.3438,-2.9375 -2.043,-1.957 -3.0625,-4.6133 -3.0625,-7.9688 0,-3.3633 1.0195,-6.0234 3.0625,-7.9844 2.0508,-1.957 4.832,-2.9375 8.3438,-2.9375 1.1641,0 2.2891,0.13672 3.375,0.40625 1.082,0.26172 2.1172,0.64844 3.1094,1.1562 v 4.3594 c -1,-0.6875 -1.9922,-1.1875 -2.9688,-1.5 -0.98047,-0.32031 -2.0078,-0.48438 -3.0781,-0.48438 -1.9375,0 -3.4648,0.62109 -4.5781,1.8594 -1.1055,1.2422 -1.6562,2.9492 -1.6562,5.125 0,2.168 0.55078,3.875 1.6562,5.125 1.1133,1.2422 2.6406,1.8594 4.5781,1.8594 1.0703,0 2.0977,-0.16016 3.0781,-0.48438 0.97656,-0.32031 1.9688,-0.82812 2.9688,-1.5156 z"
         id="path2" />
    </symbol>
    <symbol
       id="f"
       overflow="visible">
      <path
         d="m 14.141,-11.484 c -0.4375,-0.20703 -0.875,-0.35938 -1.3125,-0.45312 -0.4375,-0.10156 -0.875,-0.15625 -1.3125,-0.15625 -1.3047,0 -2.3047,0.41797 -3,1.25 -0.69922,0.83594 -1.0469,2.0273 -1.0469,3.5781 V 3.3e-4 H 2.4222 v -15.781 h 5.0469 v 2.5938 c 0.64453,-1.0312 1.3906,-1.7812 2.2344,-2.25 0.84375,-0.47656 1.8477,-0.71875 3.0156,-0.71875 0.17578,0 0.35938,0.0078 0.54688,0.01563 0.19531,0.01172 0.48828,0.04297 0.875,0.09375 z"
         id="path5" />
    </symbol>
    <symbol
       id="c"
       overflow="visible">
      <path
         d="M 18.172,-7.9375 V -6.5 H 6.391 c 0.11328,1.1875 0.53516,2.0781 1.2656,2.6719 0.73828,0.59375 1.7656,0.89062 3.0781,0.89062 1.0625,0 2.1484,-0.15625 3.2656,-0.46875 1.1133,-0.32031 2.2578,-0.80078 3.4375,-1.4375 v 3.8906 c -1.1992,0.44922 -2.3984,0.78906 -3.5938,1.0156 -1.1875,0.22656 -2.3828,0.34375 -3.5781,0.34375 -2.8555,0 -5.0742,-0.72266 -6.6562,-2.1719 -1.5859,-1.457 -2.375,-3.4922 -2.375,-6.1094 0,-2.5703 0.77344,-4.5938 2.3281,-6.0625 1.5625,-1.4766 3.7031,-2.2188 6.4219,-2.2188 2.4883,0 4.4727,0.74609 5.9531,2.2344 1.4883,1.4922 2.2344,3.4844 2.2344,5.9844 z m -5.1719,-1.6719 c 0,-0.95703 -0.28125,-1.7266 -0.84375,-2.3125 -0.5625,-0.59375 -1.293,-0.89062 -2.1875,-0.89062 -0.98047,0 -1.7773,0.27734 -2.3906,0.82812 -0.60547,0.55469 -0.98438,1.3438 -1.1406,2.375 z"
         id="path8" />
    </symbol>
    <symbol
       id="b"
       overflow="visible">
      <path
         d="m 9.5,-7.1094 c -1.0547,0 -1.8438,0.18359 -2.375,0.54688 -0.53125,0.35547 -0.79688,0.88281 -0.79688,1.5781 0,0.63672 0.21094,1.1367 0.64062,1.5 0.42578,0.36719 1.0195,0.54688 1.7812,0.54688 0.94531,0 1.7422,-0.33594 2.3906,-1.0156 0.65625,-0.6875 0.98438,-1.5469 0.98438,-2.5781 V -7.10936 Z M 17.2031,-9 V 0 H 12.125 V -2.3438 C 11.44531,-1.38286 10.6797,-0.6876 9.8281,-0.25 8.98435,0.1875 7.957,0.40625 6.75,0.40625 c -1.6367,0 -2.9648,-0.47266 -3.9844,-1.4219 -1.0234,-0.95703 -1.5312,-2.1953 -1.5312,-3.7188 0,-1.8516 0.63281,-3.2109 1.9062,-4.0781 1.2812,-0.86328 3.2812,-1.2969 6,-1.2969 h 2.9844 v -0.39062 c 0,-0.80078 -0.32031,-1.3828 -0.95312,-1.75 -0.625,-0.375 -1.6055,-0.5625 -2.9375,-0.5625 -1.0859,0 -2.0938,0.10938 -3.0312,0.32812 -0.92969,0.21875 -1.7891,0.54297 -2.5781,0.96875 v -3.8438 c 1.0703,-0.25781 2.1562,-0.45703 3.25,-0.59375 1.0938,-0.13281 2.1797,-0.20312 3.2656,-0.20312 2.8516,0 4.9102,0.5625 6.1719,1.6875 1.2578,1.1172 1.8906,2.9375 1.8906,5.4688 z"
         id="path11" />
    </symbol>
    <symbol
       id="a"
       overflow="visible">
      <path
         d="m 7.9375,-20.266 v 4.4844 h 5.2031 v 3.6094 H 7.9375 v 6.6875 c 0,0.74219 0.14453,1.2422 0.4375,1.5 0.28906,0.25 0.86719,0.375 1.7344,0.375 h 2.5938 V -3e-4 H 8.3751 c -1.9922,0 -3.4023,-0.41406 -4.2344,-1.25 -0.83594,-0.83203 -1.25,-2.2422 -1.25,-4.2344 v -6.6875 H 0.3751 v -3.6094 h 2.5156 v -4.4844 z"
         id="path14" />
    </symbol>
    <symbol
       id="l"
       overflow="visible">
      <path
         d="m 13.156,-13.469 v -8.4531 h 5.0781 V -1e-4 H 13.156 v -2.2812 c -0.6875,0.92969 -1.4531,1.6094 -2.2969,2.0469 -0.83594,0.42578 -1.7969,0.64062 -2.8906,0.64062 -1.9492,0 -3.5469,-0.76953 -4.7969,-2.3125 -1.25,-1.5508 -1.875,-3.5391 -1.875,-5.9688 0,-2.4375 0.625,-4.4258 1.875,-5.9688 1.25,-1.5391 2.8477,-2.3125 4.7969,-2.3125 1.082,0 2.0469,0.21875 2.8906,0.65625 0.84375,0.42969 1.6094,1.1055 2.2969,2.0312 z M 9.8279,-3.25 c 1.082,0 1.9062,-0.39453 2.4688,-1.1875 0.57031,-0.78906 0.85938,-1.9375 0.85938,-3.4375 0,-1.5 -0.28906,-2.6445 -0.85938,-3.4375 C 11.7342,-12.10156 10.91,-12.5 9.8279,-12.5 c -1.0625,0 -1.8828,0.39844 -2.4531,1.1875 -0.5625,0.79297 -0.84375,1.9375 -0.84375,3.4375 0,1.5 0.28125,2.6484 0.84375,3.4375 0.57031,0.79297 1.3906,1.1875 2.4531,1.1875 z"
         id="path17" />
    </symbol>
    <symbol
       id="k"
       overflow="visible">
      <path
         d="m 10.828,-3.25 c 1.0703,0 1.8906,-0.39453 2.4531,-1.1875 0.57031,-0.78906 0.85938,-1.9375 0.85938,-3.4375 0,-1.5 -0.28906,-2.6445 -0.85938,-3.4375 -0.5625,-0.78906 -1.3828,-1.1875 -2.4531,-1.1875 -1.0859,0 -1.918,0.39844 -2.5,1.1875 -0.57422,0.79297 -0.85938,1.9375 -0.85938,3.4375 0,1.4922 0.28516,2.6367 0.85938,3.4375 0.58203,0.79297 1.4141,1.1875 2.5,1.1875 z M 7.4686,-13.469 c 0.69531,-0.92578 1.4688,-1.6016 2.3125,-2.0312 0.84375,-0.4375 1.8164,-0.65625 2.9219,-0.65625 1.9375,0 3.5312,0.77344 4.7812,2.3125 1.25,1.543 1.875,3.5312 1.875,5.9688 0,2.4297 -0.625,4.418 -1.875,5.9688 -1.25,1.543 -2.8438,2.3125 -4.7812,2.3125 -1.1055,0 -2.0781,-0.21875 -2.9219,-0.65625 C 8.9373,-0.6876 8.1639,-1.3634 7.4686,-2.2813 V -1e-4 H 2.4217 v -21.922 h 5.0469 z"
         id="path20" />
    </symbol>
    <symbol
       id="j"
       overflow="visible">
      <path
         d="m 0.35938,-15.781 h 5.0312 l 4.25,10.703 3.6094,-10.703 h 5.0469 L 11.65628,1.5 c -0.66797,1.75 -1.4492,2.9727 -2.3438,3.6719 -0.88672,0.70703 -2.0547,1.0625 -3.5,1.0625 H 2.89058 V 2.9219 h 1.5781 c 0.85156,0 1.4727,-0.14062 1.8594,-0.42188 C 6.72261,2.22658 7.0312,1.74221 7.24996,1.04692 l 0.14062,-0.4375 z"
         id="path23" />
    </symbol>
    <symbol
       id="i"
       overflow="visible">
      <path
         d="M 2.4219,-21.922 H 7.4688 V 0 H 2.4219 Z"
         id="path26" />
    </symbol>
    <symbol
       id="e"
       overflow="visible">
      <path
         d="M 18.297,-9.6094 V 0 h -5.0781 v -7.3594 c 0,-1.3633 -0.03125,-2.3008 -0.09375,-2.8125 -0.0625,-0.51953 -0.16797,-0.89844 -0.3125,-1.1406 -0.19922,-0.33203 -0.46875,-0.58594 -0.8125,-0.76562 -0.33594,-0.1875 -0.71875,-0.28125 -1.1562,-0.28125 -1.0547,0 -1.8828,0.40625 -2.4844,1.2188 -0.59375,0.8125 -0.89062,1.9375 -0.89062,3.375 V 3e-5 h -5.0469 v -15.781 h 5.0469 v 2.3125 c 0.75781,-0.92578 1.5664,-1.6016 2.4219,-2.0312 0.85156,-0.4375 1.7969,-0.65625 2.8281,-0.65625 1.8203,0 3.207,0.55859 4.1562,1.6719 0.94531,1.1172 1.4219,2.7422 1.4219,4.875 z"
         id="path29" />
    </symbol>
    <symbol
       id="h"
       overflow="visible">
      <path
         d="m 17.047,-13.156 c 0.64453,-0.97656 1.4062,-1.7227 2.2812,-2.2344 0.875,-0.50781 1.8359,-0.76562 2.8906,-0.76562 1.8125,0 3.1914,0.55859 4.1406,1.6719 0.94531,1.1172 1.4219,2.7422 1.4219,4.875 v 9.6094 h -5.0625 v -8.2344 c 0.0078,-0.11328 0.01563,-0.23828 0.01563,-0.375 0.0078,-0.13281 0.01563,-0.32031 0.01563,-0.5625 0,-1.1133 -0.16797,-1.9219 -0.5,-2.4219 -0.33594,-0.50781 -0.86719,-0.76562 -1.5938,-0.76562 -0.96094,0 -1.6992,0.39844 -2.2188,1.1875 -0.52344,0.79297 -0.79297,1.9336 -0.8125,3.4219 v 7.75 h -5.0625 v -8.2344 c 0,-1.7383 -0.15234,-2.8594 -0.45312,-3.3594 -0.30469,-0.50781 -0.83984,-0.76562 -1.6094,-0.76562 -0.96875,0 -1.7188,0.39844 -2.25,1.1875 -0.52344,0.79297 -0.78125,1.9297 -0.78125,3.4062 v 7.7656 h -5.0781 v -15.781 h 5.0781 v 2.3125 c 0.625,-0.89453 1.3359,-1.5664 2.1406,-2.0156 0.80078,-0.44531 1.6875,-0.67188 2.6562,-0.67188 1.082,0 2.0391,0.26562 2.875,0.79688 0.84375,0.52344 1.4766,1.2578 1.9062,2.2031 z"
         id="path32" />
    </symbol>
    <symbol
       id="d"
       overflow="visible">
      <path
         d="m 9.9375,-12.562 c -1.125,0 -1.9805,0.40625 -2.5625,1.2188 -0.58594,0.80469 -0.875,1.9609 -0.875,3.4688 0,1.5117 0.28906,2.668 0.875,3.4688 0.58203,0.80469 1.4375,1.2031 2.5625,1.2031 1.0938,0 1.9297,-0.39844 2.5156,-1.2031 0.58203,-0.80078 0.875,-1.957 0.875,-3.4688 0,-1.5078 -0.29297,-2.6641 -0.875,-3.4688 -0.58594,-0.8125 -1.4219,-1.2188 -2.5156,-1.2188 z m 0,-3.5938 c 2.707,0 4.8281,0.73438 6.3594,2.2031 1.5312,1.4609 2.2969,3.4844 2.2969,6.0781 0,2.5937 -0.76562,4.625 -2.2969,6.0938 -1.5312,1.4609 -3.6523,2.1875 -6.3594,2.1875 -2.7305,0 -4.8672,-0.72656 -6.4062,-2.1875 -1.5312,-1.4688 -2.2969,-3.5 -2.2969,-6.0938 0,-2.5938 0.76562,-4.6172 2.2969,-6.0781 1.5391,-1.4688 3.6758,-2.2031 6.4062,-2.2031 z"
         id="path35" />
    </symbol>
    <symbol
       id="g"
       overflow="visible">
      <path
         d="m 2.25,-6.1406 v -9.6406 h 5.0781 v 1.5781 c 0,0.85547 -0.00781,1.9297 -0.015625,3.2188 -0.011719,1.293 -0.015625,2.1523 -0.015625,2.5781 0,1.2734 0.03125,2.1875 0.09375,2.75 0.070313,0.5625 0.1875,0.96875 0.34375,1.2188 0.20703,0.32422 0.47656,0.57812 0.8125,0.76562 0.33203,0.17969 0.71094,0.26562 1.1406,0.26562 1.0508,0 1.8789,-0.39844 2.4844,-1.2031 0.60156,-0.8125 0.90625,-1.9375 0.90625,-3.375 v -7.7969 h 5.0469 v 15.781 h -5.0469 v -2.2812 c -0.76172,0.91797 -1.5703,1.5938 -2.4219,2.0312 -0.84375,0.4375 -1.7812,0.65625 -2.8125,0.65625 -1.8242,0 -3.2148,-0.55469 -4.1719,-1.6719 -0.94922,-1.1133 -1.4219,-2.7383 -1.4219,-4.875 z"
         id="path38" />
    </symbol>
    <symbol
       id="s"
       overflow="visible">
      <path
         d="M 2.4219,-15.781 H 7.4688 V 0 H 2.4219 Z m 0,-6.1406 h 5.0469 v 4.1094 H 2.4219 Z"
         id="path41" />
    </symbol>
    <symbol
       id="r"
       overflow="visible">
      <path
         d="m 12.812,-21.922 v 3.3125 h -2.7969 c -0.71094,0 -1.2031,0.13281 -1.4844,0.39062 -0.28125,0.25 -0.42188,0.69922 -0.42188,1.3438 v 1.0938 h 4.3125 v 3.6094 h -4.3125 v 12.172 h -5.0469 v -12.172 h -2.5156 v -3.6094 h 2.5156 v -1.0938 c 0,-1.7188 0.47656,-2.9883 1.4375,-3.8125 0.95703,-0.82031 2.4414,-1.2344 4.4531,-1.2344 z"
         id="path44" />
    </symbol>
    <symbol
       id="q"
       overflow="visible">
      <path
         d="M 18.297,-9.6094 V 0 h -5.0781 v -7.3281 c 0,-1.3828 -0.03125,-2.332 -0.09375,-2.8438 -0.0625,-0.51953 -0.16797,-0.89844 -0.3125,-1.1406 -0.19922,-0.33203 -0.46875,-0.58594 -0.8125,-0.76562 -0.33594,-0.1875 -0.71875,-0.28125 -1.1562,-0.28125 -1.0547,0 -1.8828,0.40625 -2.4844,1.2188 -0.59375,0.8125 -0.89062,1.9375 -0.89062,3.375 V 3e-5 h -5.0469 v -21.922 h 5.0469 v 8.4531 c 0.75781,-0.92578 1.5664,-1.6016 2.4219,-2.0312 0.85156,-0.4375 1.7969,-0.65625 2.8281,-0.65625 1.8203,0 3.207,0.55859 4.1562,1.6719 0.94531,1.1172 1.4219,2.7422 1.4219,4.875 z"
         id="path47" />
    </symbol>
    <symbol
       id="p"
       overflow="visible">
      <path
         d="m 2.6562,-21.031 h 6.0469 l 7.6562,14.422 v -14.422 h 5.1406 V 0 H 15.4374 L 7.7968,-14.438 V 0 H 2.6562 Z"
         id="path50" />
    </symbol>
    <symbol
       id="o"
       overflow="visible">
      <path
         d="m 2.6562,-21.031 h 9 c 2.6758,0 4.7266,0.59375 6.1562,1.7812 1.4375,1.1875 2.1562,2.8828 2.1562,5.0781 0,2.2109 -0.71875,3.9062 -2.1562,5.0938 -1.4297,1.1875 -3.4805,1.7812 -6.1562,1.7812 H 8.0781 V 2e-4 H 2.6562 Z m 5.4219,3.9219 v 5.875 h 3 c 1.0508,0 1.8633,-0.25391 2.4375,-0.76562 0.57031,-0.50781 0.85938,-1.2344 0.85938,-2.1719 0,-0.9375 -0.28906,-1.6602 -0.85938,-2.1719 -0.57422,-0.50781 -1.3867,-0.76562 -2.4375,-0.76562 z"
         id="path53" />
    </symbol>
    <symbol
       id="n"
       overflow="visible">
      <path
         d="m 2.4219,-15.781 h 5.0469 v 15.5 c 0,2.1133 -0.51172,3.7266 -1.5312,4.8438 C 4.9259,5.6761 3.4571,6.2347 1.5314,6.2347 H -0.953 V 2.9222 h 0.875 c 0.95703,0 1.6133,-0.21875 1.9688,-0.65625 0.35156,-0.42969 0.53125,-1.2773 0.53125,-2.5469 z m 0,-6.1406 h 5.0469 v 4.1094 H 2.4219 Z"
         id="path56" />
    </symbol>
    <symbol
       id="m"
       overflow="visible">
      <path
         d="m 15.172,-15.297 v 4.125 c -0.6875,-0.46875 -1.375,-0.81641 -2.0625,-1.0469 -0.6875,-0.22656 -1.4023,-0.34375 -2.1406,-0.34375 -1.418,0 -2.5156,0.41406 -3.2969,1.2344 -0.78125,0.82422 -1.1719,1.9766 -1.1719,3.4531 0,1.4688 0.39062,2.6172 1.1719,3.4375 0.78125,0.82422 1.8789,1.2344 3.2969,1.2344 0.78125,0 1.5234,-0.11328 2.2344,-0.34375 0.71875,-0.23828 1.375,-0.58594 1.9688,-1.0469 v 4.125 C 14.39085,-0.17593 13.594,0.03891 12.7815,0.18735 11.969,0.33188 11.1487,0.4061 10.3284,0.4061 c -2.8438,0 -5.0742,-0.72656 -6.6875,-2.1875 -1.6055,-1.457 -2.4062,-3.4883 -2.4062,-6.0938 0,-2.6016 0.80078,-4.6328 2.4062,-6.0938 1.6133,-1.457 3.8438,-2.1875 6.6875,-2.1875 0.82031,0 1.6328,0.07422 2.4375,0.21875 0.8125,0.14844 1.6133,0.35938 2.4062,0.64062 z"
         id="path59" />
    </symbol>
  </defs>
  <g
     id="g150">
    <path
       d="M 74.53641,24.28954 H 1.5797302 L 24.70697,1.1606899 c 0.18044,-0.18043005 0.18044,-0.47425005 0,-0.65468005 -0.18043,-0.18043 -0.47425,-0.18043 -0.65468,0 L 0.1359602,24.42234 c -0.0432,0.0426 -0.0771,0.0934 -0.10024,0.14973 -0.0232,0.0558 -0.0357,0.11653 -0.0357,0.17855 0,0.0614 0.0131,0.12217 0.0363,0.17793 0.0232,0.0558 0.0576,0.10651 0.10024,0.14911 L 24.05609,48.99399 c 0.18043,0.18043 0.47426,0.18043 0.65469,0 0.18043,-0.18043 0.18043,-0.47425 0,-0.65468 L 1.5803202,25.21366 H 74.537 c 0.25562,0 0.46298,-0.20737 0.46298,-0.46297 -6.4e-4,-0.25498 -0.208,-0.46236 -0.46298,-0.46236 z"
       id="path64"
       style="fill:#000000;fill-opacity:1;stroke-width:2;stroke:#000000;stroke-opacity:1;stroke-miterlimit:4;stroke-dasharray:none" />
  </g>
</svg>
