<?xml version="1.0" encoding="UTF-8" standalone="no"?>
<svg
   xmlns:dc="http://purl.org/dc/elements/1.1/"
   xmlns:cc="http://creativecommons.org/ns#"
   xmlns:rdf="http://www.w3.org/1999/02/22-rdf-syntax-ns#"
   xmlns:svg="http://www.w3.org/2000/svg"
   xmlns="http://www.w3.org/2000/svg"
   xmlns:sodipodi="http://sodipodi.sourceforge.net/DTD/sodipodi-0.dtd"
   xmlns:inkscape="http://www.inkscape.org/namespaces/inkscape"
   data-name="Layer 1"
   viewBox="0 0 512 640"
   x="0px"
   y="0px"
   version="1.1"
   id="svg18"
   sodipodi:docname="mapa.svg"
   inkscape:version="1.0.2 (e86c870879, 2021-01-15)">
  <metadata
     id="metadata24">
    <rdf:RDF>
      <cc:Work
         rdf:about="">
        <dc:format>image/svg+xml</dc:format>
        <dc:type
           rdf:resource="http://purl.org/dc/dcmitype/StillImage" />
        <dc:title>Artboard 88</dc:title>
      </cc:Work>
    </rdf:RDF>
  </metadata>
  <defs
     id="defs22" />
  <sodipodi:namedview
     pagecolor="#000000"
     bordercolor="#666666"
     borderopacity="1"
     objecttolerance="10"
     gridtolerance="10"
     guidetolerance="10"
     inkscape:pageopacity="0"
     inkscape:pageshadow="2"
     inkscape:window-width="1366"
     inkscape:window-height="704"
     id="namedview20"
     showgrid="false"
     inkscape:zoom="0.753125"
     inkscape:cx="256"
     inkscape:cy="320"
     inkscape:window-x="0"
     inkscape:window-y="0"
     inkscape:window-maximized="1"
     inkscape:current-layer="svg18"
     inkscape:pagecheckerboard="true" />
  <title
     id="title2">Artboard 88</title>
  <path
     d="M147.572,140.551,206,209.182,264.391,140.6c.012-.014.024-.029.037-.043a51.248,51.248,0,0,0,10.035-16.4c.016-.047.034-.093.051-.139a73.009,73.009,0,0,0-8.536-67.28,72.971,72.971,0,0,0-119.956,0,73.012,73.012,0,0,0-8.536,67.28A54.424,54.424,0,0,0,147.572,140.551ZM206,41.387a57.057,57.057,0,1,1-57.056,57.056A57.121,57.121,0,0,1,206,41.387Z"
     id="path4"
     style="fill:#ffffff;fill-opacity:1;stroke:#ffffff;stroke-opacity:1" />
  <path
     d="M206,139.5a41.057,41.057,0,1,0-41.056-41.057A41.1,41.1,0,0,0,206,139.5Z"
     id="path6"
     style="fill:#ffffff;fill-opacity:1;stroke:#ffffff;stroke-opacity:1" />
  <path
     d="M129.509,142.865,79,177.9V486.672l110-76.108V213.617l-53.344-62.651A78.514,78.514,0,0,1,129.509,142.865Z"
     id="path8"
     style="fill:#ffffff;fill-opacity:1;stroke:#ffffff;stroke-opacity:1" />
  <path
     d="M212.15,226.708a7.873,7.873,0,0,1-6.032,2.815,3.767,3.767,0,0,1-1.118-.108v181.99l104,73.579V177.86l-34.264-24.632Z"
     id="path10"
     style="fill:#ffffff;fill-opacity:1;stroke:#ffffff;stroke-opacity:1" />
  <polygon
     points="325 485.157 433 410.928 433 102.248 325 177.821 325 485.157"
     id="polygon12"
     style="fill:#ffffff;fill-opacity:1;stroke:#ffffff;stroke-opacity:1" />
</svg>
